<?xml version="1.0" standalone="no"?>
<!DOCTYPE svg PUBLIC "-//W3C//DTD SVG 20010904//EN"
 "http://www.w3.org/TR/2001/REC-SVG-20010904/DTD/svg10.dtd">
<svg version="1.0" xmlns="http://www.w3.org/2000/svg"
 width="1280.000000pt" height="1020.000000pt" viewBox="0 0 1280.000000 1020.000000"
 preserveAspectRatio="xMidYMid meet">
<metadata>
Created by potrace 1.15, written by Peter Selinger 2001-2017
</metadata>
<g transform="translate(0.000000,1020.000000) scale(0.100000,-0.100000)"
fill="#000000" stroke="none">
<path d="M15 10170 c4 -13 36 -87 70 -165 468 -1053 1377 -2496 2224 -3530
140 -171 255 -305 258 -302 8 9 103 383 99 392 -2 7 -45 66 -94 131 -282 375
-610 920 -852 1417 -90 185 -232 497 -226 497 1 0 62 -27 136 -61 575 -261
1520 -578 2360 -793 986 -253 2349 -472 3385 -546 290 -20 269 -16 312 -63
130 -142 245 -312 437 -649 l147 -257 112 95 c62 53 113 99 115 103 1 4 -28
50 -65 102 -38 52 -117 164 -177 249 -963 1369 -1943 2418 -2973 3184 l-103
76 -156 -183 c-224 -261 -467 -567 -624 -786 -180 -253 -522 -802 -508 -817 5
-5 522 -103 544 -104 6 0 42 53 79 118 102 176 279 451 290 452 6 0 75 -25
154 -55 79 -30 146 -53 148 -51 2 2 -11 104 -30 227 l-35 223 45 58 c24 32 48
58 52 58 12 0 321 -174 474 -267 340 -207 727 -481 1027 -727 225 -185 561
-489 705 -636 l70 -72 -270 5 c-1055 23 -2245 247 -3405 642 -1191 406 -2352
1013 -3310 1728 -148 111 -331 254 -404 316 -18 15 -18 15 -11 -9z"/>
<path d="M2047 8020 c16 -25 147 -237 292 -471 l262 -426 125 46 c68 25 124
48 124 51 0 3 -188 194 -416 425 -235 237 -403 400 -387 375z"/>
<path d="M12580 7729 c-533 -50 -684 -65 -1305 -134 -1319 -147 -1622 -168
-2697 -191 l-286 -6 65 -102 c36 -55 67 -103 69 -105 13 -14 1230 -161 1517
-182 92 -7 167 -16 167 -19 0 -3 -30 -24 -67 -47 -38 -22 -383 -234 -768 -470
-385 -237 -828 -506 -985 -598 -1008 -594 -1743 -1089 -2364 -1590 -109 -88
-207 -166 -217 -174 -21 -15 -47 -2 -289 142 -414 248 -801 538 -1578 1186
-200 166 -365 301 -366 299 -4 -5 -56 -252 -56 -265 0 -30 304 -365 531 -588
587 -574 1320 -1143 2359 -1830 392 -259 510 -334 745 -467 1093 -620 2298
-1082 3386 -1298 209 -42 566 -96 574 -88 5 5 -59 190 -252 733 -558 1571
-946 2536 -1379 3433 l-93 192 -68 -26 c-37 -14 -147 -55 -243 -91 -96 -36
-179 -69 -183 -73 -4 -4 69 -168 164 -366 586 -1226 847 -1840 1085 -2548 l83
-248 -72 6 c-231 22 -495 84 -982 231 -115 35 -211 62 -213 61 -2 -3 118 -77
213 -131 28 -16 201 -104 385 -196 184 -92 344 -174 355 -183 l20 -15 -20 4
c-581 128 -1164 342 -1860 685 -245 121 -590 308 -582 316 2 3 1017 -311 1121
-346 16 -6 27 -8 25 -6 -3 3 -101 63 -219 134 -459 275 -728 451 -1048 689
l-153 114 -40 -32 c-43 -34 -135 -137 -184 -206 -36 -51 -37 -50 -153 19 -105
63 -267 180 -545 391 l-217 166 142 113 c754 600 1512 1117 2223 1515 492 276
904 491 1785 931 970 486 1703 836 2400 1147 241 108 302 138 275 134 -6 -1
-98 -10 -205 -20z"/>
<path d="M3526 7598 c-105 -179 -314 -662 -519 -1198 -241 -629 -333 -905
-426 -1275 -363 -1450 -484 -3292 -314 -4778 15 -134 19 -150 38 -157 11 -4
83 -46 160 -92 77 -47 149 -88 160 -91 16 -5 32 11 89 91 186 260 618 851 765
1047 626 835 1008 1289 1537 1825 l233 235 -156 135 c-86 74 -164 140 -173
147 -15 11 -35 -2 -141 -94 -586 -502 -1321 -1250 -1896 -1932 -62 -73 -113
-131 -114 -129 -1 1 -4 77 -9 168 -13 291 12 730 64 1144 l22 178 -23 -28
c-83 -103 -221 -394 -309 -654 l-29 -85 -3 80 c-7 177 24 562 69 855 24 158
108 622 114 628 2 2 19 -20 38 -50 38 -59 194 -258 203 -258 3 0 2 9 -1 20 -8
25 11 564 31 860 43 660 118 1398 170 1665 58 300 226 748 544 1450 45 99 84
185 86 191 4 10 -163 144 -179 144 -3 0 -17 -19 -31 -42z"/>
<path d="M5392 7303 c2 -5 22 -44 44 -88 98 -190 147 -388 147 -600 1 -163
-14 -236 -73 -365 -50 -110 -64 -188 -49 -274 20 -117 19 -117 164 42 71 78
131 140 132 138 2 -2 -22 -114 -54 -249 l-57 -247 25 -26 c56 -61 244 -190
367 -253 l42 -21 0 21 c0 12 -7 67 -16 123 -32 203 -10 249 230 465 72 65 96
105 96 161 0 66 -57 149 -162 237 -44 37 -98 89 -119 116 -22 27 -86 144 -143
260 -59 121 -125 240 -154 278 -93 122 -206 207 -353 264 -69 28 -72 28 -67
18z"/>
<path d="M6405 6899 c-99 -5 -190 -11 -202 -14 -21 -5 -21 -5 12 -97 l33 -93
198 -7 c453 -14 832 -97 918 -199 32 -37 32 -59 4 -117 -88 -174 -635 -498
-1042 -617 -50 -14 -92 -27 -94 -30 -8 -8 10 -125 20 -125 27 0 223 56 353
101 611 211 1129 540 1173 744 13 60 -4 145 -40 201 -77 120 -261 202 -535
240 -136 18 -560 25 -798 13z"/>
<path d="M5205 6665 c-504 -118 -1043 -325 -1292 -497 -433 -299 -154 -509
807 -607 217 -22 556 -45 581 -40 13 3 7 25 -34 132 l-50 127 -128 0 c-279 0
-788 83 -919 150 -58 30 -67 46 -43 78 88 118 755 430 1142 533 88 24 86 21
75 103 -8 54 -2 53 -139 21z"/>
<path d="M3788 4013 c-48 -5 -46 7 -52 -353 l-5 -285 25 75 c39 116 174 553
174 562 0 8 -70 8 -142 1z"/>
<path d="M8935 3949 c-60 -32 -114 -60 -120 -62 -5 -3 69 -85 166 -183 207
-209 273 -283 556 -619 116 -137 232 -272 258 -300 l46 -50 -79 155 c-93 183
-218 398 -348 600 -148 233 -351 520 -364 518 -3 0 -54 -27 -115 -59z"/>
<path d="M7905 3713 c-54 -58 -107 -116 -117 -128 l-18 -23 100 -35 c285 -103
714 -310 1198 -580 145 -81 265 -147 268 -147 3 0 -58 56 -135 124 -426 379
-835 685 -1191 891 -3 2 -50 -44 -105 -102z"/>
</g>
</svg>
